<?xml version="1.0" encoding="UTF-8"?>
<svg width="52px" height="34px" viewBox="0 0 52 34" version="1.1" xmlns="http://www.w3.org/2000/svg" xmlns:xlink="http://www.w3.org/1999/xlink">
    <!-- Generator: Sketch 44.1 (41455) - http://www.bohemiancoding.com/sketch -->
    <title>eye</title>
    <desc>Created with Sketch.</desc>
    <defs></defs>
    <g id="Page-1" stroke="none" stroke-width="1" fill="none" fill-rule="evenodd">
        <g id="eye" transform="translate(2.000000, 1.000000)" stroke="#CACED1" stroke-width="2" fill="#CACED1" fill-rule="nonzero">
            <path d="M24,0 C11.056,0 0,16 0,16 C0,16 11.048,32 24,32 C36.944,32 48,16 48,16 C48,16 36.952,0 24,0 Z M24,30 C14.185,30 5.226,19.52 2.494,16 C5.229,12.478 14.191,2 24,2 C33.815,2 42.774,12.48 45.506,16 C42.771,19.522 33.809,30 24,30 Z M24,8 C19.582,8 16,11.582 16,16 C16,20.418 19.582,24 24,24 C28.418,24 32,20.418 32,16 C32,11.582 28.418,8 24,8 Z M24,22 C20.692,22 18,19.308 18,16 C18,12.692 20.692,10 24,10 C27.308,10 30,12.692 30,16 C30,19.308 27.308,22 24,22 Z" id="Shape"></path>
        </g>
    </g>
</svg>