<?xml version="1.0" encoding="UTF-8"?>
<svg width="220px" height="330px" viewBox="0 0 220 330" version="1.1" xmlns="http://www.w3.org/2000/svg" xmlns:xlink="http://www.w3.org/1999/xlink">
    <!-- Generator: Sketch 44.1 (41455) - http://www.bohemiancoding.com/sketch -->
    <title>closed-lock</title>
    <desc>Created with Sketch.</desc>
    <defs></defs>
    <g id="Page-1" stroke="none" stroke-width="1" fill="none" fill-rule="evenodd">
        <g id="closed-lock" transform="translate(5.000000, 5.000000)" stroke="#4886FF" stroke-width="10" fill="#4886FF" fill-rule="nonzero">
            <path d="M176.731,133.115 L176.731,64.523 C176.731,28.945 149.733,0 116.549,0 L93.451,0 C60.266,0 33.268,28.945 33.268,64.523 L33.268,133.114 C12.96,152.852 0.257,180.845 0.257,211.847 C0.258,271.483 47.245,320 105,320 C162.755,320 209.742,271.483 209.742,211.848 C209.742,180.846 197.04,152.853 176.731,133.115 Z M53.269,117.804 L53.269,64.524 C53.269,39.973 71.294,20.001 93.452,20.001 L116.55,20.001 C138.707,20.001 156.733,39.974 156.733,64.524 L156.733,117.804 C154.003,116.203 151.205,114.741 148.353,113.402 C148.251,113.354 148.15,113.303 148.048,113.255 C147.649,113.069 147.247,112.892 146.846,112.711 C146.25,112.442 145.651,112.177 145.05,111.919 C144.768,111.799 144.487,111.679 144.204,111.561 C143.313,111.188 142.417,110.827 141.515,110.479 C141.495,110.471 141.475,110.463 141.456,110.456 C132.225,106.906 122.383,104.667 112.142,103.952 C111.905,103.935 111.668,103.92 111.431,103.905 C110.611,103.853 109.788,103.812 108.963,103.78 C108.692,103.769 108.421,103.756 108.149,103.748 C107.103,103.716 106.055,103.695 105.002,103.695 C103.949,103.695 102.901,103.716 101.855,103.748 C101.583,103.756 101.312,103.769 101.041,103.78 C100.216,103.812 99.393,103.853 98.573,103.905 C98.336,103.92 98.099,103.935 97.862,103.952 C87.621,104.667 77.779,106.906 68.548,110.456 C68.528,110.464 68.508,110.472 68.489,110.479 C67.586,110.827 66.69,111.188 65.8,111.561 C65.517,111.679 65.236,111.798 64.954,111.919 C64.352,112.177 63.754,112.442 63.158,112.711 C62.757,112.891 62.355,113.069 61.956,113.255 C61.854,113.303 61.753,113.354 61.651,113.402 C58.797,114.74 55.998,116.203 53.269,117.804 Z M105,300 C58.273,300 20.258,260.455 20.258,211.848 C20.258,178.895 37.734,150.112 63.548,134.987 C63.95,134.753 64.35,134.515 64.755,134.288 C65.197,134.039 65.643,133.796 66.09,133.554 C66.874,133.132 67.662,132.718 68.458,132.322 C68.71,132.196 68.965,132.075 69.219,131.952 C78.05,127.673 87.561,124.984 97.338,124.06 C97.423,124.052 97.509,124.044 97.595,124.036 C98.753,123.93 99.915,123.849 101.079,123.793 C101.214,123.787 101.351,123.783 101.486,123.777 C102.655,123.726 103.827,123.695 105.001,123.695 C106.175,123.695 107.347,123.726 108.516,123.777 C108.652,123.783 108.788,123.787 108.923,123.793 C110.088,123.849 111.249,123.93 112.407,124.036 C112.493,124.044 112.578,124.052 112.664,124.06 C122.441,124.984 131.952,127.673 140.783,131.952 C141.037,132.075 141.292,132.196 141.544,132.322 C142.34,132.718 143.127,133.132 143.912,133.554 C144.359,133.795 144.805,134.038 145.247,134.288 C145.652,134.515 146.053,134.753 146.454,134.987 C172.268,150.112 189.744,178.895 189.744,211.848 C189.742,260.455 151.727,300 105,300 Z" id="Shape"></path>
            <path d="M134.504,195.563 C134.504,179.29 121.269,166.05 104.999,166.05 C88.731,166.05 75.496,179.289 75.496,195.563 C75.496,203.881 78.948,211.623 84.839,217.12 L77.764,248.849 C77.605,249.564 77.525,250.293 77.525,251.026 C77.525,259.693 86.013,266.228 97.269,266.228 L112.736,266.228 C123.99,266.228 132.476,259.693 132.476,251.026 C132.476,250.294 132.396,249.564 132.236,248.849 L125.16,217.12 C131.051,211.622 134.504,203.881 134.504,195.563 Z M98.84,246.227 L104.999,218.605 L111.16,246.227 L98.84,246.227 L98.84,246.227 Z M109.36,204.014 C107.416,205.024 105.917,206.605 104.999,208.469 C104.081,206.605 102.582,205.024 100.638,204.014 C97.467,202.367 95.496,199.128 95.496,195.563 C95.496,190.318 99.759,186.05 104.999,186.05 C110.24,186.05 114.504,190.318 114.504,195.563 C114.504,199.127 112.533,202.365 109.36,204.014 Z" id="Shape"></path>
        </g>
    </g>
</svg>